<svg width="194" height="70" viewBox="0 0 194 70" fill="none" xmlns="http://www.w3.org/2000/svg">
<path d="M73.421 65.4442C73.0898 65.4442 72.7926 65.388 72.5274 65.2757C72.2622 65.1633 72.044 65.0026 71.8722 64.7943C71.7004 64.5859 71.5887 64.3383 71.5364 64.0535L72.1335 63.9594C72.2093 64.2534 72.3667 64.4833 72.6058 64.6486C72.8449 64.8145 73.1264 64.8968 73.4504 64.8968C73.6601 64.8968 73.8495 64.8642 74.018 64.7982C74.1866 64.7322 74.3211 64.6375 74.4217 64.514C74.5223 64.3906 74.5726 64.2449 74.5726 64.0764C74.5726 63.9745 74.5544 63.8856 74.5171 63.8099C74.4805 63.7341 74.4315 63.6707 74.3714 63.6185C74.3107 63.5668 74.2414 63.5224 74.1637 63.4858C74.086 63.4486 74.005 63.4173 73.9207 63.3918L72.7305 63.0384C72.6005 63.0012 72.4751 62.9535 72.3536 62.894C72.2328 62.8346 72.1243 62.7601 72.0296 62.67C71.9343 62.5805 71.8585 62.4714 71.8023 62.344C71.7461 62.2166 71.718 62.0657 71.718 61.8933C71.718 61.6189 71.7899 61.3831 71.9336 61.1865C72.0773 60.9899 72.2726 60.8396 72.5195 60.7371C72.7665 60.6345 73.0441 60.5829 73.3531 60.5829C73.6666 60.5849 73.9468 60.641 74.1944 60.7501C74.4426 60.8592 74.6478 61.0153 74.8111 61.2185C74.9744 61.4216 75.0841 61.6647 75.1403 61.9482L74.5276 62.0553C74.4949 61.8672 74.423 61.7038 74.3113 61.5654C74.1996 61.4269 74.0612 61.3211 73.8946 61.2459C73.728 61.1715 73.5458 61.1329 73.3465 61.131C73.1564 61.1284 72.984 61.1597 72.8305 61.2231C72.677 61.2864 72.5548 61.3746 72.464 61.4857C72.3732 61.5967 72.3282 61.7241 72.3282 61.8672C72.3282 62.0115 72.3693 62.1278 72.4516 62.214C72.5333 62.3002 72.6345 62.3695 72.7547 62.4198C72.8749 62.4707 72.9918 62.5119 73.1068 62.5445L73.9952 62.8006C74.0971 62.8287 74.2147 62.8679 74.3473 62.9175C74.4805 62.9672 74.6099 63.0371 74.7346 63.1266C74.8601 63.2161 74.9639 63.335 75.0462 63.4832C75.1285 63.6315 75.1697 63.8177 75.1697 64.0424C75.1697 64.2678 75.1246 64.4677 75.0351 64.6427C74.945 64.8178 74.8202 64.9654 74.6602 65.0843C74.5001 65.2032 74.3146 65.2933 74.1023 65.3534C73.89 65.4142 73.6634 65.4442 73.421 65.4442ZM185.851 47.4171H192.029V49.1606H185.851V47.4171ZM188.94 53.4235C187.985 53.4235 187.143 53.2178 186.416 52.8062C185.688 52.3947 185.118 51.8277 184.707 51.1059C184.295 50.3841 184.089 49.5571 184.089 48.6249C184.089 47.6065 184.291 46.7201 184.694 45.9663C185.096 45.2125 185.652 44.6272 186.359 44.2098C187.067 43.793 187.881 43.584 188.802 43.584C189.78 43.584 190.611 43.8146 191.296 44.2744C191.98 44.7343 192.487 45.3817 192.815 46.2165C193.143 47.0507 193.257 48.0318 193.159 49.1593H190.838V48.2964C190.838 47.3472 190.687 46.6639 190.385 46.2465C190.083 45.8298 189.59 45.6207 188.905 45.6207C188.105 45.6207 187.517 45.8637 187.14 46.3504C186.763 46.8364 186.575 47.5543 186.575 48.5034C186.575 49.3722 186.763 50.0438 187.14 50.5186C187.517 50.9929 188.071 51.23 188.801 51.23C189.261 51.23 189.656 51.1294 189.984 50.9282C190.311 50.727 190.562 50.4363 190.735 50.0568L193.082 50.7303C192.731 51.5821 192.177 52.2438 191.421 52.7154C190.664 53.1871 189.837 53.4229 188.939 53.4229L188.94 53.4235ZM179.343 53.4235C178.377 53.4235 177.548 53.208 176.858 52.7762C176.167 52.3451 175.637 51.7578 175.27 51.0157C174.901 50.2737 174.717 49.4369 174.717 48.5047C174.717 47.5608 174.908 46.7182 175.291 45.9761C175.673 45.234 176.213 44.65 176.909 44.2241C177.605 43.7982 178.428 43.5853 179.378 43.5853C180.476 43.5853 181.398 43.8636 182.143 44.4181C182.889 44.9734 183.364 45.7318 183.572 46.692L181.225 47.3139C181.087 46.8305 180.847 46.4536 180.505 46.1832C180.162 45.9127 179.776 45.7782 179.344 45.7782C178.849 45.7782 178.444 45.8977 178.127 46.1361C177.811 46.3752 177.577 46.6999 177.428 47.1114C177.278 47.5229 177.204 47.9874 177.204 48.5054C177.204 49.3167 177.383 49.9738 177.743 50.4768C178.103 50.9805 178.636 51.232 179.344 51.232C179.874 51.232 180.276 51.1111 180.552 50.8694C180.829 50.6277 181.036 50.2822 181.173 49.834L183.573 50.3344C183.308 51.3241 182.807 52.0864 182.071 52.6214C181.335 53.1564 180.425 53.4242 179.344 53.4242L179.343 53.4235ZM171.041 53.1649V48.7634C171.041 48.5505 171.029 48.2787 171.006 47.9475C170.982 47.617 170.911 47.2845 170.79 46.9507C170.67 46.6169 170.472 46.338 170.199 46.1133C169.926 45.8886 169.539 45.7769 169.038 45.7769C168.837 45.7769 168.621 45.8082 168.391 45.8716C168.161 45.9349 167.945 46.0571 167.744 46.2387C167.543 46.4203 167.377 46.6862 167.247 47.0369C167.118 47.3877 167.053 47.8535 167.053 48.4348L165.707 47.796C165.707 47.0591 165.857 46.3693 166.156 45.7246C166.455 45.0805 166.905 44.5593 167.507 44.1627C168.108 43.7656 168.866 43.5676 169.78 43.5676C170.511 43.5676 171.107 43.6911 171.567 43.9387C172.027 44.1862 172.385 44.4992 172.642 44.8793C172.898 45.2589 173.08 45.6547 173.19 46.0662C173.299 46.4778 173.365 46.8534 173.388 47.1924C173.411 47.5314 173.423 47.7797 173.423 47.9345V53.1642H171.041L171.041 53.1649ZM164.672 53.1649V43.844H166.76V46.9337H167.054V53.1649H164.672H164.672ZM156.128 47.4171H162.307V49.1606H156.128V47.4171ZM159.218 53.4235C158.263 53.4235 157.421 53.2178 156.694 52.8062C155.965 52.3947 155.396 51.8277 154.985 51.1059C154.573 50.3841 154.368 49.5571 154.368 48.6249C154.368 47.6065 154.569 46.7201 154.972 45.9663C155.375 45.2125 155.93 44.6272 156.638 44.2098C157.345 43.793 158.159 43.584 159.079 43.584C160.057 43.584 160.889 43.8146 161.573 44.2744C162.258 44.7343 162.764 45.3817 163.092 46.2165C163.42 47.0507 163.535 48.0318 163.437 49.1593H161.115V48.2964C161.115 47.3472 160.965 46.6639 160.663 46.2465C160.36 45.8298 159.867 45.6207 159.183 45.6207C158.382 45.6207 157.794 45.8637 157.418 46.3504C157.041 46.8364 156.852 47.5543 156.852 48.5034C156.852 49.3722 157.041 50.0438 157.418 50.5186C157.794 50.9929 158.348 51.23 159.079 51.23C159.539 51.23 159.933 51.1294 160.261 50.9282C160.589 50.727 160.839 50.4363 161.012 50.0568L163.359 50.7303C163.008 51.5821 162.454 52.2438 161.697 52.7154C160.941 53.1871 160.114 53.4229 159.217 53.4229L159.218 53.4235ZM149.776 53.1649V43.8786C149.776 43.6428 149.782 43.3749 149.794 43.0758C149.805 42.7772 149.852 42.4748 149.936 42.1704C150.02 41.8653 150.173 41.589 150.398 41.3414C150.685 41.0194 150.998 40.7993 151.335 40.681C151.671 40.5635 151.997 40.4995 152.314 40.4916C152.631 40.4831 152.901 40.4785 153.125 40.4785H154.282V42.3775H153.212C152.844 42.3775 152.57 42.4709 152.392 42.6584C152.214 42.8452 152.124 43.0679 152.124 43.3266V53.1655H149.777L149.776 53.1649ZM148.309 43.844H154.281V45.656H148.309V43.844ZM140.18 47.4171H146.358V49.1606H140.18V47.4171ZM143.269 53.4235C142.314 53.4235 141.473 53.2178 140.745 52.8062C140.018 52.3947 139.448 51.8277 139.036 51.1059C138.625 50.3841 138.42 49.5571 138.42 48.6249C138.42 47.6065 138.621 46.7201 139.023 45.9663C139.426 45.2125 139.982 44.6272 140.689 44.2098C141.396 43.793 142.21 43.584 143.131 43.584C144.109 43.584 144.94 43.8146 145.625 44.2744C146.31 44.7343 146.816 45.3817 147.144 46.2165C147.472 47.0507 147.587 48.0318 147.489 49.1593H145.168V48.2964C145.168 47.3472 145.017 46.6639 144.715 46.2465C144.412 45.8298 143.919 45.6207 143.235 45.6207C142.434 45.6207 141.847 45.8637 141.47 46.3504C141.093 46.8364 140.905 47.5543 140.905 48.5034C140.905 49.3722 141.093 50.0438 141.47 50.5186C141.847 50.9929 142.4 51.23 143.131 51.23C143.591 51.23 143.985 51.1294 144.314 50.9282C144.642 50.727 144.892 50.4363 145.064 50.0568L147.411 50.7303C147.061 51.5821 146.507 52.2438 145.75 52.7154C144.994 53.1871 144.167 53.4229 143.269 53.4229V53.4235ZM129.496 50.955H131.136C131.291 50.955 131.501 50.9504 131.765 50.9419C132.03 50.9334 132.269 50.9093 132.482 50.8688C133.023 50.7597 133.464 50.5062 133.807 50.1091C134.149 49.7119 134.402 49.2344 134.566 48.6765C134.73 48.1187 134.812 47.5432 134.812 46.9507C134.812 46.3295 134.727 45.7396 134.557 45.1818C134.387 44.6239 134.13 44.1516 133.785 43.7662C133.439 43.3808 133.006 43.1365 132.482 43.0327C132.269 42.9869 132.031 42.9608 131.765 42.9549C131.501 42.949 131.29 42.9464 131.136 42.9464H129.496V50.9557V50.955ZM127.114 53.1642V40.7366H131.136C131.233 40.7366 131.435 40.7398 131.74 40.7451C132.044 40.7509 132.338 40.7712 132.62 40.8051C133.62 40.926 134.47 41.2742 135.166 41.8497C135.862 42.4251 136.391 43.1555 136.754 44.0419C137.117 44.9277 137.297 45.8977 137.297 46.9501C137.297 48.0031 137.116 48.9725 136.754 49.8589C136.391 50.7447 135.862 51.4756 135.166 52.0505C134.47 52.626 133.621 52.9741 132.62 53.095C132.338 53.1296 132.044 53.1498 131.74 53.1557C131.434 53.1616 131.233 53.1642 131.136 53.1642H127.114ZM119.588 40.4772H121.936V53.1642H119.588V40.4772ZM112.875 51.5762C113.306 51.5762 113.67 51.4998 113.966 51.3476C114.263 51.1954 114.498 51.0216 114.674 50.8257C114.849 50.6297 114.968 50.4657 115.032 50.3338C115.152 50.081 115.223 49.7857 115.243 49.4493C115.263 49.1129 115.273 48.832 115.273 48.608L115.964 48.7804C115.267 48.8954 114.704 48.992 114.272 49.0698C113.84 49.1475 113.492 49.2181 113.227 49.2814C112.963 49.3448 112.73 49.414 112.528 49.4885C112.298 49.5806 112.113 49.6792 111.972 49.7857C111.831 49.8922 111.728 50.0091 111.661 50.1352C111.595 50.2619 111.562 50.403 111.562 50.5585C111.562 50.7714 111.615 50.9543 111.722 51.1066C111.828 51.2594 111.979 51.3757 112.175 51.456C112.37 51.5364 112.604 51.5769 112.874 51.5769L112.875 51.5762ZM112.374 53.4235C111.707 53.4235 111.142 53.2955 110.678 53.0394C110.215 52.7834 109.864 52.4411 109.625 52.0126C109.387 51.5841 109.267 51.1105 109.267 50.5931C109.267 50.1613 109.333 49.7674 109.466 49.4101C109.599 49.0541 109.813 48.7386 110.109 48.4655C110.405 48.1925 110.803 47.9632 111.304 47.779C111.649 47.6529 112.061 47.5406 112.538 47.4426C113.016 47.3453 113.557 47.2519 114.161 47.1624C114.765 47.0735 115.429 46.9742 116.154 46.8645L115.309 47.3302C115.309 46.7776 115.176 46.3719 114.911 46.1133C114.647 45.8546 114.204 45.7246 113.583 45.7246C113.237 45.7246 112.878 45.8082 112.504 45.9748C112.13 46.142 111.868 46.4379 111.718 46.8638L109.595 46.191C109.831 45.4196 110.274 44.7925 110.924 44.3091C111.575 43.8263 112.46 43.584 113.583 43.584C114.405 43.584 115.136 43.7107 115.775 43.9642C116.414 44.217 116.897 44.6546 117.225 45.2758C117.409 45.6208 117.518 45.9663 117.553 46.3112C117.588 46.6568 117.605 47.0422 117.605 47.4674V53.1636H115.55V51.2476L115.844 51.6448C115.389 52.2719 114.898 52.7252 114.372 53.0042C113.846 53.2831 113.18 53.4229 112.374 53.4229V53.4235ZM103.641 51.3352C104.147 51.3352 104.561 51.2085 104.883 50.9557C105.205 50.7022 105.444 50.3619 105.6 49.9327C105.755 49.5042 105.833 49.028 105.833 48.5041C105.833 47.9861 105.752 47.5131 105.591 47.0846C105.43 46.6561 105.182 46.3138 104.845 46.0578C104.509 45.8017 104.078 45.6736 103.555 45.6736C103.066 45.6736 102.671 45.7912 102.369 46.0271C102.066 46.2629 101.846 46.5934 101.708 47.0193C101.571 47.4452 101.502 47.9397 101.502 48.5041C101.502 49.0678 101.571 49.5623 101.708 49.9882C101.847 50.4141 102.072 50.7447 102.386 50.9811C102.699 51.2169 103.118 51.3345 103.641 51.3345L103.641 51.3352ZM104.02 53.4235C103.094 53.4235 102.32 53.208 101.699 52.7762C101.077 52.3451 100.61 51.7585 100.296 51.0157C99.9825 50.2737 99.8258 49.4362 99.8258 48.5047C99.8258 47.5726 99.9812 46.7352 100.292 45.9931C100.602 45.251 101.06 44.6644 101.664 44.2326C102.268 43.8015 103.013 43.5853 103.899 43.5853C104.791 43.5853 105.568 43.7982 106.229 44.2241C106.891 44.65 107.404 45.2327 107.77 45.9715C108.135 46.711 108.318 47.555 108.318 48.5047C108.318 49.4369 108.137 50.2737 107.778 51.0157C107.418 51.7585 106.916 52.3444 106.272 52.7762C105.628 53.208 104.876 53.4235 104.019 53.4235H104.02ZM99.4286 53.1649V40.7372H101.793V46.7783H101.5V53.1649H99.4286ZM93.2497 51.2313C94.0035 51.2313 94.566 50.9766 94.937 50.4677C95.308 49.9582 95.4935 49.3043 95.4935 48.5041C95.4935 47.6751 95.3048 47.0141 94.9279 46.5189C94.5509 46.0244 93.9918 45.7762 93.2491 45.7762C92.7369 45.7762 92.3169 45.8918 91.989 46.1218C91.6611 46.3517 91.4181 46.6711 91.2593 47.0801C91.1012 47.4883 91.0222 47.9632 91.0222 48.5041C91.0222 49.3383 91.2103 50.0013 91.5872 50.4932C91.9641 50.985 92.5181 51.2307 93.2484 51.2307L93.2497 51.2313ZM93.2497 53.4235C92.3123 53.4235 91.4893 53.2132 90.7818 52.7932C90.0737 52.3738 89.523 51.7937 89.1292 51.0543C88.7346 50.3148 88.538 49.465 88.538 48.5041C88.538 47.5314 88.7392 46.6757 89.1422 45.9362C89.5446 45.1968 90.0998 44.62 90.8073 44.2059C91.5147 43.7917 92.3293 43.5846 93.2497 43.5846C94.1871 43.5846 95.0115 43.7943 95.7222 44.2144C96.4322 44.635 96.9862 45.2138 97.3833 45.9532C97.7805 46.6927 97.9791 47.5425 97.9791 48.5034C97.9791 49.4702 97.7792 50.3233 97.3788 51.0621C96.979 51.8016 96.4237 52.3797 95.713 52.7964C95.003 53.2139 94.1812 53.4222 93.2497 53.4222V53.4235ZM84.5507 40.4779H86.8977V53.1649H84.5507V40.4779ZM77.1973 53.4235C76.4147 53.4235 75.6701 53.2844 74.9626 53.0048C74.2552 52.7259 73.6287 52.3131 73.0859 51.7663C72.5418 51.2196 72.1132 50.5441 71.7997 49.738C71.4861 48.9333 71.3294 48.0037 71.3294 46.9507C71.3294 45.5757 71.5933 44.4064 72.1191 43.4422C72.645 42.4787 73.3531 41.7438 74.2421 41.2376C75.1311 40.7313 76.1162 40.4779 77.198 40.4779C78.7971 40.4779 80.0545 40.8489 80.969 41.591C81.8842 42.3337 82.4969 43.3834 82.8072 44.7408L80.4079 45.0857C80.1832 44.3607 79.8167 43.7813 79.3079 43.3469C78.7984 42.9125 78.1471 42.6923 77.3528 42.6864C76.5643 42.6753 75.9085 42.8445 75.3852 43.196C74.8614 43.5467 74.4688 44.0445 74.2075 44.6892C73.9449 45.3333 73.8142 46.0871 73.8142 46.9501C73.8142 47.813 73.9449 48.5609 74.2075 49.1939C74.4688 49.8269 74.8614 50.3187 75.3852 50.6702C75.9091 51.021 76.5643 51.2026 77.3528 51.2137C77.8878 51.2254 78.3725 51.1333 78.8069 50.9374C79.2413 50.7414 79.6077 50.4337 79.9069 50.0137C80.2061 49.5937 80.419 49.0554 80.5451 48.4002H78.5776V46.5882H83.0483C83.0594 46.6626 83.0685 46.7952 83.0737 46.9853C83.0796 47.1748 83.0829 47.2845 83.0829 47.3133C83.0829 48.5041 82.8412 49.5597 82.3578 50.4801C81.8744 51.4005 81.1924 52.1217 80.3119 52.6423C79.432 53.1629 78.3934 53.4235 77.1966 53.4235H77.1973ZM165.139 35.9046V23.477H173.251V25.6692H167.486V28.3272H172.216V30.5194H167.486V33.7124H173.251V35.9046H165.139ZM160.84 35.9046L158.39 30.8474L160.806 30.3816L163.498 35.9053H160.84L160.84 35.9046ZM156.18 29.5011H158.977C159.098 29.5011 159.23 29.4952 159.374 29.4841C159.518 29.4723 159.65 29.4495 159.771 29.4148C160.087 29.3286 160.332 29.1829 160.505 28.9791C160.677 28.7747 160.797 28.548 160.863 28.2978C160.929 28.0476 160.962 27.8099 160.962 27.5851C160.962 27.3611 160.929 27.124 160.863 26.8738C160.796 26.6236 160.677 26.3963 160.505 26.1918C160.332 25.988 160.087 25.8423 159.771 25.7561C159.65 25.7215 159.518 25.6986 159.374 25.6869C159.23 25.6751 159.098 25.6699 158.977 25.6699H156.18V29.5017V29.5011ZM153.833 35.9046V23.477H159.081C159.201 23.477 159.364 23.4816 159.568 23.4894C159.772 23.4986 159.955 23.5168 160.116 23.5456C160.859 23.6612 161.467 23.9055 161.941 24.2792C162.416 24.6535 162.765 25.1238 162.99 25.6901C163.214 26.2571 163.326 26.8888 163.326 27.5845C163.326 28.6264 163.067 29.5167 162.549 30.2555C162.031 30.995 161.221 31.4509 160.115 31.6234L159.08 31.6926H156.18V35.9046H153.833ZM143.719 31.1237H150.278V33.3159H143.719V31.1237ZM141.44 35.9046L145.237 23.477H148.741L152.539 35.9046H150.122L146.739 24.9442H147.188L143.857 35.9046H141.44ZM129.306 35.9046L125.664 23.477H128.133L130.463 32.0205L132.793 23.494L135.261 23.477L137.591 32.0205L139.921 23.477H142.389L138.748 35.9046H136.435L134.027 27.5159L131.619 35.9046H129.306ZM122.401 35.9046L119.95 30.8474L122.367 30.3816L125.059 35.9053H122.401L122.401 35.9046ZM117.741 29.5011H120.538C120.658 29.5011 120.79 29.4952 120.935 29.4841C121.078 29.4723 121.211 29.4495 121.332 29.4148C121.648 29.3286 121.893 29.1829 122.066 28.9791C122.238 28.7747 122.358 28.548 122.423 28.2978C122.489 28.0476 122.523 27.8099 122.523 27.5851C122.523 27.3611 122.489 27.124 122.423 26.8738C122.357 26.6236 122.238 26.3963 122.066 26.1918C121.893 25.988 121.648 25.8423 121.332 25.7561C121.211 25.7215 121.078 25.6986 120.935 25.6869C120.791 25.6751 120.658 25.6699 120.538 25.6699H117.741V29.5017V29.5011ZM115.394 35.9046V23.477H120.641C120.762 23.477 120.925 23.4816 121.129 23.4894C121.333 23.4986 121.516 23.5168 121.677 23.5456C122.42 23.6612 123.028 23.9055 123.502 24.2792C123.977 24.6535 124.326 25.1238 124.55 25.6901C124.774 26.2571 124.887 26.8888 124.887 27.5845C124.887 28.6264 124.628 29.5167 124.11 30.2555C123.592 30.995 122.781 31.4509 121.676 31.6234L120.641 31.6926H117.741V35.9046H115.394ZM105.47 35.9046V23.477H113.582V25.6692H107.817V28.3272H112.547V30.5194H107.817V33.7124H113.582V35.9046H105.47ZM97.1155 33.6954H99.9975C100.314 33.6954 100.596 33.6275 100.843 33.4923C101.091 33.3571 101.285 33.1676 101.426 32.9227C101.567 32.6784 101.638 32.389 101.638 32.0552C101.638 31.7612 101.578 31.4999 101.456 31.27C101.335 31.0394 101.153 30.8572 100.909 30.7219C100.664 30.5867 100.361 30.5188 99.9982 30.5188H97.1162V33.6948L97.1155 33.6954ZM97.1155 28.3272H99.6696C99.9342 28.3272 100.17 28.2815 100.377 28.1887C100.584 28.0966 100.748 27.9542 100.869 27.7615C100.99 27.5688 101.051 27.3199 101.051 27.0149C101.051 26.6354 100.932 26.3159 100.696 26.0572C100.461 25.7986 100.118 25.6686 99.6696 25.6686H97.1155V28.3272ZM94.7338 35.9046V23.477H99.7049C100.591 23.477 101.307 23.6534 101.853 24.0074C102.4 24.3615 102.8 24.8063 103.053 25.3406C103.306 25.8763 103.433 26.4172 103.433 26.9633C103.433 27.6596 103.276 28.2377 102.963 28.6982C102.648 29.1588 102.219 29.4664 101.672 29.6219V29.1901C102.449 29.3508 103.031 29.7108 103.42 30.2686C103.808 30.8271 104.002 31.4509 104.002 32.1414C104.002 32.8835 103.865 33.5367 103.592 34.1004C103.319 34.6642 102.903 35.1057 102.345 35.4252C101.787 35.744 101.085 35.904 100.239 35.904H94.7332L94.7338 35.9046ZM87.1564 35.9046V30.8474L82.9104 23.4776H85.6546L88.3479 28.1554L91.0405 23.4776H93.7847L89.5387 30.8474V35.9046H87.1571H87.1564ZM77.3528 36.1633C76.1097 36.1633 75.0384 35.8929 74.1376 35.352C73.2374 34.8111 72.5437 34.0547 72.0577 33.0827C71.5717 32.11 71.3281 30.98 71.3281 29.6905C71.3281 28.4017 71.5717 27.2716 72.0577 26.2989C72.5437 25.3269 73.2374 24.5705 74.1376 24.029C75.0384 23.4881 76.1097 23.2177 77.3528 23.2177C78.7801 23.2177 79.9781 23.5711 80.9475 24.2792C81.9169 24.9866 82.5995 25.9449 82.9967 27.1527L80.632 27.8085C80.4014 27.0547 80.0134 26.4694 79.4666 26.052C78.9199 25.6353 78.215 25.4262 77.3521 25.4262C76.5637 25.4262 75.9065 25.6019 75.38 25.9527C74.8535 26.3035 74.4583 26.7987 74.1931 27.4369C73.9286 28.0751 73.7966 28.8263 73.7966 29.6892C73.7966 30.5521 73.9292 31.3033 74.1931 31.9422C74.4583 32.581 74.8535 33.0755 75.38 33.4263C75.9065 33.7771 76.5637 33.9528 77.3521 33.9528C78.215 33.9528 78.9199 33.7431 79.4666 33.3231C80.0134 32.9031 80.4014 32.3191 80.632 31.5711L82.9967 32.227C82.5995 33.4355 81.9169 34.3931 80.9475 35.1012C79.9781 35.8086 78.7801 36.1627 77.3528 36.1627V36.1633ZM33.3566 60.8096C40.7087 58.0242 46.8673 53.2491 51.1865 46.9788C51.225 46.9233 51.2635 46.8671 51.3021 46.8103H15.4118C15.453 46.8704 15.4935 46.9305 15.5346 46.9899C19.8544 53.255 26.0098 58.0262 33.3566 60.8089V60.8096ZM62.4017 26.2264C62.3997 26.4041 62.3991 26.5811 62.3952 26.7588C62.3952 26.7666 62.3952 26.7745 62.3952 26.783C62.3815 27.4173 61.8628 27.9235 61.2292 27.9235H9.0324C9.20159 30.98 9.74377 34.0018 10.6498 36.9224C11.1979 38.6913 11.8929 40.4452 12.7186 42.1456H53.9953C54.7694 40.5517 55.4285 38.9101 55.9596 37.2536H33.3573C32.7132 37.2536 32.1913 36.7316 32.1913 36.0875V33.7549C32.1913 33.1108 32.7132 32.5882 33.3573 32.5882H60.4688C61.2037 32.5882 61.755 33.2591 61.6133 33.9796C61.6133 33.9802 61.6133 33.9802 61.6133 33.9802C61.5747 34.1762 61.5296 34.3735 61.4878 34.5701C61.4375 34.8072 61.3879 35.045 61.3337 35.2815C61.2801 35.5147 61.222 35.7466 61.1645 35.9791C61.0998 36.2391 61.0365 36.4997 60.9666 36.7578C60.9424 36.8479 60.9182 36.9381 60.8934 37.0269C60.7771 37.4495 60.6563 37.8702 60.5263 38.2883C60.5263 38.2889 60.5256 38.2896 60.525 38.2909C60.4832 38.4261 60.4394 38.5607 60.3963 38.6952C60.363 38.7998 60.3303 38.9036 60.2957 39.0088C60.2467 39.1577 60.1951 39.306 60.1448 39.4543C60.1154 39.5412 60.086 39.628 60.056 39.7149C60.0089 39.8495 59.9599 39.9834 59.9116 40.1173C59.7934 40.4413 59.6725 40.7653 59.5465 41.0887V41.0945C59.1885 42.013 58.7985 42.9203 58.3772 43.8093C57.9905 44.6278 57.5763 45.4352 57.1471 46.2086C56.4972 47.3792 55.7852 48.5289 55.03 49.625C49.9943 56.9359 42.7703 62.4224 34.1392 65.4926C33.8877 65.5821 33.6244 65.6278 33.3573 65.6278C33.0901 65.6278 32.8269 65.5821 32.5747 65.4926C23.9502 62.425 16.7294 56.9431 11.6936 49.6387C10.9353 48.5387 10.2193 47.3844 9.56739 46.2093C9.13887 45.4378 8.72538 44.6304 8.33671 43.81C7.71484 42.4957 7.15895 41.1422 6.6834 39.7874C6.50964 39.2929 6.34437 38.7939 6.19283 38.3033C5.03596 34.5721 4.40625 30.6958 4.31937 26.7823C4.31283 26.4701 4.30827 26.1578 4.30827 25.8456L4.31022 17.5588C4.45981 14.9472 5.34101 12.4355 6.85781 10.2949C9.48574 6.58586 13.7559 4.3714 18.2808 4.3714H33.3592C34.0033 4.3714 34.5252 4.89334 34.5252 5.53807V7.87009C34.5252 8.51417 34.0033 9.03611 33.3592 9.03611H18.2808C13.3783 9.03611 9.28977 12.8666 8.97296 17.7573C8.95793 17.9925 8.95075 18.1859 8.95075 18.3661V23.2582H61.2422C61.8863 23.2582 62.4089 23.7801 62.4089 24.4242V25.8547C62.4089 25.9789 62.4056 26.1023 62.4043 26.2258L62.4017 26.2264ZM65.905 24.4248C65.905 21.8531 63.812 19.7595 61.2403 19.7595H12.4475V18.3668C12.4475 18.2629 12.452 18.1408 12.4625 17.9814C12.6604 14.9289 15.2145 12.5354 18.2782 12.5354H33.3566C35.929 12.5354 38.022 10.4425 38.022 7.87075V5.53873C38.022 2.96632 35.929 0.874023 33.3566 0.874023H18.2782C12.6206 0.874023 7.28306 3.63979 3.99994 8.27378C2.10297 10.9507 1.00162 14.0927 0.814802 17.3602L0.808925 17.4601V17.5594L0.807617 25.8462C0.807617 26.1526 0.81154 26.4845 0.819379 26.8607C0.913443 31.1002 1.59606 35.2984 2.84895 39.3406C3.01552 39.8782 3.19451 40.4184 3.38068 40.9482C3.89738 42.4193 4.50032 43.8864 5.17314 45.3085C5.59382 46.1975 6.04258 47.0729 6.50702 47.9096C7.21316 49.1828 7.9892 50.4337 8.81226 51.6272C14.2687 59.541 22.08 65.4762 31.4015 68.7914C32.0306 69.0148 32.6884 69.1284 33.356 69.1284C34.0236 69.1284 34.6807 69.0148 35.3104 68.7914C44.6392 65.4736 52.4544 59.5332 57.9108 51.6121C58.7286 50.4246 59.5014 49.1789 60.2062 47.909C60.5119 47.3583 60.8091 46.7913 61.0959 46.2165C61.1371 46.1342 61.1795 46.0525 61.22 45.9696C61.2226 45.9643 61.2252 45.9591 61.2279 45.9539C61.333 45.7396 61.4369 45.5247 61.5394 45.3085C61.546 45.2948 61.5519 45.2804 61.5584 45.2667C61.6982 44.9708 61.8334 44.6736 61.9667 44.3737C62.0111 44.2751 62.0548 44.1751 62.098 44.0759C62.2084 43.8231 62.3168 43.5696 62.422 43.3149C62.452 43.2423 62.4834 43.1705 62.5128 43.098C62.6336 42.8027 62.7505 42.5055 62.8655 42.2076C62.9119 42.0874 62.957 41.9673 63.0027 41.8464C63.0896 41.6158 63.1738 41.3839 63.2568 41.152C63.281 41.0841 63.3077 41.0162 63.3313 40.9482C63.3404 40.9227 63.3489 40.8959 63.358 40.8705C63.3881 40.7836 63.4175 40.6967 63.4469 40.6092C63.5044 40.442 63.5618 40.2754 63.6174 40.1068C63.6566 39.988 63.6938 39.8684 63.7317 39.7495C63.7754 39.613 63.8205 39.4771 63.863 39.3406C63.8708 39.3151 63.878 39.2897 63.8858 39.2642C63.9401 39.0891 63.993 38.9114 64.0459 38.7312C64.0812 38.6129 64.1151 38.4947 64.1484 38.3771C64.1641 38.3222 64.1791 38.2674 64.1948 38.2118C64.4045 37.4665 64.5959 36.7153 64.7677 35.9608C64.7677 35.9595 64.7684 35.9576 64.7684 35.9556C65.4458 32.9749 65.824 29.9289 65.8919 26.8614C65.8958 26.7065 65.8978 26.5622 65.8997 26.4211C65.9004 26.3747 65.901 26.3283 65.9017 26.2826C65.9017 26.265 65.9024 26.2454 65.9024 26.2277C65.903 26.103 65.9043 25.9789 65.9043 25.8593V24.4261L65.905 24.4248ZM190.019 63.2938H192.608V63.7576H190.019V63.2938ZM191.313 65.4442C190.97 65.4442 190.67 65.3678 190.413 65.2156C190.157 65.0627 189.958 64.8504 189.815 64.5767C189.673 64.3037 189.601 63.9836 189.601 63.6178C189.601 63.235 189.671 62.9038 189.812 62.6236C189.952 62.3434 190.148 62.1271 190.4 61.9743C190.652 61.8221 190.948 61.7463 191.287 61.7463C191.639 61.7463 191.94 61.8273 192.187 61.9893C192.435 62.152 192.621 62.3832 192.745 62.6837C192.87 62.9842 192.924 63.3421 192.906 63.7576H192.322V63.5499C192.316 63.1194 192.228 62.798 192.059 62.5851C191.89 62.3721 191.639 62.2656 191.306 62.2656C190.95 62.2656 190.678 62.3806 190.492 62.6099C190.306 62.8392 190.213 63.1677 190.213 63.5956C190.213 64.0091 190.306 64.3292 190.492 64.5558C190.678 64.7832 190.942 64.8962 191.287 64.8962C191.518 64.8962 191.719 64.8433 191.89 64.7374C192.061 64.631 192.195 64.4794 192.292 64.2795L192.847 64.4709C192.711 64.7805 192.506 65.0203 192.233 65.1895C191.959 65.3593 191.652 65.4442 191.313 65.4442H191.313ZM188.245 60.5783H188.823V65.3469H188.245V60.5783ZM185.614 64.9608C185.822 64.9608 186.001 64.9236 186.154 64.8491C186.306 64.7747 186.429 64.676 186.522 64.5539C186.615 64.4317 186.676 64.2985 186.704 64.1535C186.734 64.0457 186.751 63.9255 186.756 63.7935C186.76 63.6616 186.762 63.559 186.762 63.4852L186.964 63.5727C186.775 63.6008 186.59 63.6269 186.407 63.6505C186.224 63.674 186.052 63.6988 185.892 63.7249C185.731 63.7504 185.585 63.7824 185.455 63.819C185.36 63.849 185.271 63.8889 185.188 63.9372C185.105 63.9856 185.037 64.047 184.986 64.1221C184.935 64.1966 184.91 64.2887 184.91 64.3965C184.91 64.4912 184.934 64.5826 184.983 64.6688C185.031 64.7557 185.107 64.8256 185.21 64.8798C185.313 64.9341 185.447 64.9608 185.614 64.9608ZM185.527 65.4442C185.265 65.4442 185.046 65.3959 184.87 65.2999C184.694 65.2038 184.56 65.0765 184.471 64.919C184.381 64.761 184.336 64.5879 184.336 64.3997C184.336 64.2155 184.371 64.0568 184.44 63.9229C184.509 63.789 184.608 63.6759 184.737 63.5858C184.865 63.495 185.019 63.4238 185.196 63.3715C185.363 63.3265 185.549 63.2866 185.754 63.2533C185.959 63.2193 186.168 63.1886 186.38 63.1605C186.592 63.1325 186.791 63.1057 186.976 63.0795L186.769 63.1997C186.774 62.8901 186.711 62.6608 186.581 62.5106C186.451 62.3597 186.227 62.2852 185.907 62.2852C185.694 62.2852 185.509 62.3336 185.35 62.4309C185.191 62.5282 185.079 62.6837 185.014 62.8979L184.466 62.732C184.551 62.425 184.714 62.184 184.956 62.0089C185.199 61.8338 185.517 61.7463 185.913 61.7463C186.231 61.7463 186.504 61.8031 186.732 61.9162C186.961 62.0298 187.124 62.201 187.224 62.4302C187.274 62.538 187.305 62.6556 187.318 62.7823C187.331 62.9084 187.338 63.041 187.338 63.1795V65.3462H186.826V64.5062L186.946 64.5839C186.814 64.8694 186.629 65.0843 186.391 65.228C186.153 65.3717 185.866 65.4436 185.528 65.4436L185.527 65.4442ZM182.368 65.4442C182.013 65.4442 181.712 65.3652 181.464 65.2058C181.217 65.0471 181.027 64.8276 180.896 64.5486C180.766 64.2697 180.699 63.9523 180.697 63.5949C180.7 63.2317 180.768 62.911 180.902 62.6334C181.036 62.3551 181.226 62.1382 181.476 61.9815C181.725 61.8247 182.024 61.7463 182.374 61.7463C182.744 61.7463 183.063 61.8371 183.329 62.0187C183.596 62.2003 183.775 62.4492 183.866 62.7647L183.295 62.9365C183.219 62.7333 183.098 62.5752 182.933 62.4629C182.767 62.3505 182.579 62.2944 182.368 62.2944C182.128 62.2944 181.929 62.3499 181.774 62.4616C181.618 62.5726 181.502 62.7268 181.427 62.9221C181.351 63.1181 181.313 63.3421 181.311 63.5949C181.315 63.9843 181.405 64.2985 181.581 64.5375C181.757 64.7766 182.019 64.8962 182.368 64.8962C182.596 64.8962 182.786 64.8439 182.937 64.7394C183.087 64.6342 183.202 64.4827 183.283 64.2841L183.867 64.4363C183.745 64.7629 183.556 65.0131 183.298 65.1862C183.041 65.3587 182.731 65.4455 182.368 65.4455V65.4442ZM178.773 65.441C178.356 65.441 178.014 65.3495 177.747 65.1673C177.479 64.9844 177.315 64.7289 177.255 64.4004L177.846 64.3063C177.894 64.4964 178.003 64.6473 178.174 64.759C178.344 64.8707 178.557 64.9256 178.809 64.9256C179.047 64.9256 179.235 64.8759 179.372 64.7766C179.51 64.6773 179.578 64.5421 179.578 64.3716C179.578 64.2743 179.555 64.1946 179.51 64.1332C179.465 64.0718 179.371 64.0137 179.229 63.9601C179.088 63.9059 178.875 63.8399 178.589 63.7622C178.28 63.6799 178.037 63.5949 177.86 63.5074C177.682 63.4199 177.556 63.318 177.48 63.201C177.404 63.0841 177.367 62.9411 177.367 62.7725C177.367 62.5674 177.423 62.3878 177.536 62.2343C177.648 62.0808 177.805 61.9612 178.008 61.8756C178.21 61.7901 178.446 61.7476 178.713 61.7476C178.979 61.7476 179.218 61.7901 179.427 61.8743C179.637 61.9586 179.806 62.0781 179.935 62.233C180.064 62.3871 180.14 62.5674 180.164 62.7732L179.573 62.8803C179.545 62.6941 179.454 62.5465 179.301 62.4374C179.147 62.3283 178.951 62.2702 178.713 62.2637C178.487 62.2571 178.302 62.2983 178.161 62.3871C178.019 62.476 177.948 62.5948 177.948 62.7438C177.948 62.83 177.975 62.9032 178.028 62.9626C178.081 63.0221 178.18 63.0789 178.323 63.1331C178.467 63.1867 178.676 63.2487 178.951 63.318C179.26 63.3957 179.504 63.4806 179.683 63.5727C179.861 63.6648 179.988 63.7726 180.064 63.8974C180.139 64.0215 180.177 64.175 180.177 64.3566C180.177 64.6937 180.053 64.9595 179.804 65.1529C179.555 65.3462 179.212 65.4429 178.776 65.4429L178.773 65.441ZM174.602 60.5783H175.179V65.3469H174.602V60.5783ZM171.971 64.9608C172.179 64.9608 172.359 64.9236 172.512 64.8491C172.664 64.7747 172.787 64.676 172.879 64.5539C172.972 64.4317 173.033 64.2985 173.062 64.1535C173.092 64.0457 173.109 63.9255 173.113 63.7935C173.118 63.6616 173.12 63.559 173.12 63.4852L173.321 63.5727C173.133 63.6008 172.947 63.6269 172.764 63.6505C172.582 63.674 172.41 63.6988 172.249 63.7249C172.088 63.7504 171.943 63.7824 171.813 63.819C171.717 63.849 171.628 63.8889 171.545 63.9372C171.462 63.9856 171.395 64.047 171.344 64.1221C171.293 64.1966 171.267 64.2887 171.267 64.3965C171.267 64.4912 171.291 64.5826 171.34 64.6688C171.389 64.7557 171.465 64.8256 171.568 64.8798C171.67 64.9341 171.805 64.9608 171.971 64.9608ZM171.884 65.4442C171.622 65.4442 171.403 65.3959 171.227 65.2999C171.051 65.2038 170.918 65.0765 170.828 64.919C170.739 64.761 170.694 64.5879 170.694 64.3997C170.694 64.2155 170.728 64.0568 170.798 63.9229C170.867 63.789 170.965 63.6759 171.095 63.5858C171.223 63.495 171.376 63.4238 171.553 63.3715C171.72 63.3265 171.906 63.2866 172.111 63.2533C172.316 63.2193 172.525 63.1886 172.737 63.1605C172.949 63.1325 173.148 63.1057 173.333 63.0795L173.126 63.1997C173.131 62.8901 173.068 62.6608 172.938 62.5106C172.809 62.3597 172.584 62.2852 172.264 62.2852C172.052 62.2852 171.866 62.3336 171.708 62.4309C171.549 62.5282 171.436 62.6837 171.372 62.8979L170.824 62.732C170.908 62.425 171.071 62.184 171.314 62.0089C171.556 61.8338 171.875 61.7463 172.271 61.7463C172.588 61.7463 172.861 61.8031 173.09 61.9162C173.318 62.0298 173.482 62.201 173.581 62.4302C173.631 62.538 173.662 62.6556 173.676 62.7823C173.689 62.9084 173.695 63.041 173.695 63.1795V65.3462H173.183V64.5062L173.303 64.5839C173.171 64.8694 172.987 65.0843 172.748 65.228C172.51 65.3717 172.223 65.4436 171.886 65.4436L171.884 65.4442ZM168.533 64.9158C168.763 64.9158 168.953 64.8576 169.106 64.7407C169.259 64.6238 169.372 64.4657 169.448 64.2658C169.524 64.0659 169.562 63.8412 169.562 63.593C169.562 63.3461 169.524 63.124 169.448 62.9247C169.372 62.7255 169.258 62.5681 169.104 62.4511C168.95 62.3342 168.755 62.2761 168.517 62.2761C168.29 62.2761 168.102 62.3316 167.952 62.4433C167.803 62.5543 167.691 62.7098 167.618 62.9084C167.544 63.1076 167.508 63.3356 167.508 63.593C167.508 63.8477 167.544 64.0757 167.616 64.2756C167.689 64.4755 167.801 64.6323 167.952 64.7459C168.104 64.8596 168.297 64.9164 168.533 64.9164L168.533 64.9158ZM168.605 65.4442C168.276 65.4442 167.999 65.3626 167.774 65.1993C167.55 65.036 167.379 64.8152 167.264 64.5362C167.148 64.2573 167.09 63.9431 167.09 63.5923C167.09 63.2396 167.148 62.9247 167.264 62.6465C167.379 62.3688 167.55 62.1493 167.776 61.988C168.002 61.8266 168.28 61.7463 168.609 61.7463C168.933 61.7463 169.213 61.8266 169.447 61.988C169.682 62.1487 169.861 62.3688 169.987 62.6478C170.112 62.9267 170.175 63.2415 170.175 63.5917C170.175 63.9418 170.112 64.2573 169.987 64.5375C169.861 64.8171 169.682 65.0386 169.447 65.2006C169.213 65.3626 168.932 65.4436 168.605 65.4436L168.605 65.4442ZM166.993 65.3469V60.6757H167.573V62.7679H167.508V65.3469H166.993ZM164.593 64.8962C164.954 64.8962 165.223 64.7753 165.402 64.533C165.58 64.2913 165.67 63.9771 165.67 63.5923C165.67 63.1984 165.58 62.8842 165.401 62.6484C165.221 62.4126 164.952 62.295 164.593 62.295C164.349 62.295 164.148 62.3499 163.99 62.4603C163.832 62.5707 163.714 62.7229 163.636 62.9175C163.559 63.1122 163.52 63.3369 163.52 63.5923C163.52 63.9856 163.611 64.3017 163.792 64.5395C163.974 64.7773 164.241 64.8962 164.594 64.8962H164.593ZM164.593 65.4442C164.244 65.4442 163.944 65.3652 163.692 65.2071C163.44 65.0497 163.246 64.8315 163.11 64.5532C162.974 64.2756 162.906 63.9549 162.906 63.5917C162.906 63.2265 162.975 62.9045 163.114 62.6269C163.252 62.3492 163.448 62.133 163.701 61.9782C163.954 61.8234 164.252 61.7463 164.593 61.7463C164.943 61.7463 165.245 61.8253 165.498 61.9834C165.751 62.1409 165.945 62.3584 166.08 62.6354C166.215 62.9123 166.282 63.2311 166.282 63.5923C166.282 63.9581 166.215 64.2795 166.078 64.5571C165.941 64.8354 165.747 65.0523 165.494 65.2091C165.241 65.3658 164.941 65.4442 164.593 65.4442ZM161.55 60.5783H162.127V65.3469H161.55V60.5783ZM159.039 64.9151C159.275 64.9151 159.468 64.8583 159.62 64.7446C159.771 64.631 159.883 64.4742 159.955 64.2743C160.028 64.0744 160.064 63.8464 160.064 63.5917C160.064 63.3343 160.027 63.1063 159.953 62.9071C159.88 62.7085 159.769 62.553 159.621 62.442C159.473 62.3303 159.284 62.2748 159.055 62.2748C158.817 62.2748 158.621 62.3329 158.467 62.4498C158.312 62.5668 158.197 62.7242 158.122 62.9234C158.048 63.1227 158.011 63.3454 158.011 63.5917C158.011 63.8406 158.049 64.0646 158.124 64.2645C158.199 64.4644 158.313 64.6231 158.466 64.7394C158.618 64.8563 158.81 64.9145 159.038 64.9145L159.039 64.9151ZM159.01 67.0002C158.826 67.0002 158.647 66.9721 158.471 66.9159C158.296 66.8598 158.135 66.7748 157.99 66.6612C157.843 66.5475 157.722 66.4045 157.625 66.232L158.153 65.9531C158.239 66.1242 158.363 66.2484 158.521 66.3254C158.68 66.4032 158.844 66.4424 159.012 66.4424C159.235 66.4424 159.42 66.4019 159.565 66.3209C159.712 66.2399 159.82 66.1197 159.891 65.959C159.962 65.7989 159.997 65.5997 159.995 65.3626V64.4056H160.063V61.843H160.576V65.3684C160.576 65.4658 160.573 65.5585 160.568 65.6461C160.562 65.7336 160.551 65.8205 160.533 65.9074C160.488 66.1556 160.398 66.3607 160.264 66.5221C160.13 66.6828 159.957 66.8029 159.745 66.882C159.533 66.961 159.287 67.0002 159.009 67.0002H159.01ZM158.968 65.4436C158.642 65.4436 158.361 65.3626 158.128 65.2006C157.894 65.0379 157.714 64.8171 157.587 64.5375C157.461 64.2573 157.397 63.9425 157.397 63.5917C157.397 63.2415 157.461 62.9267 157.587 62.6478C157.713 62.3688 157.894 62.1487 158.128 61.988C158.361 61.8266 158.64 61.7463 158.964 61.7463C159.296 61.7463 159.573 61.8266 159.798 61.988C160.023 62.1487 160.193 62.3688 160.309 62.6465C160.424 62.9247 160.482 63.2396 160.482 63.5923C160.482 63.9425 160.424 64.2573 160.309 64.5362C160.193 64.8152 160.023 65.0366 159.798 65.1993C159.573 65.3626 159.296 65.4442 158.968 65.4442V65.4436ZM153.729 64.9602C153.936 64.9602 154.117 64.923 154.27 64.8485C154.422 64.774 154.545 64.6754 154.637 64.5532C154.73 64.4311 154.791 64.2978 154.82 64.1528C154.85 64.045 154.867 63.9248 154.871 63.7929C154.876 63.6609 154.878 63.5584 154.878 63.4846L155.079 63.5721C154.891 63.6002 154.705 63.6263 154.522 63.6498C154.34 63.6733 154.168 63.6982 154.007 63.7243C153.846 63.7498 153.7 63.7818 153.571 63.8183C153.476 63.8484 153.386 63.8882 153.303 63.9366C153.22 63.9849 153.153 64.0463 153.102 64.1214C153.051 64.1959 153.025 64.288 153.025 64.3958C153.025 64.4905 153.049 64.582 153.098 64.6682C153.147 64.7551 153.222 64.825 153.325 64.8792C153.428 64.9334 153.562 64.9602 153.729 64.9602ZM153.642 65.4436C153.38 65.4436 153.161 65.3952 152.985 65.2992C152.809 65.2032 152.676 65.0758 152.586 64.9184C152.497 64.7603 152.452 64.5872 152.452 64.3991C152.452 64.2149 152.486 64.0561 152.556 63.9222C152.625 63.7883 152.723 63.6753 152.853 63.5851C152.981 63.4943 153.134 63.4231 153.311 63.3709C153.478 63.3258 153.664 63.286 153.869 63.2527C154.074 63.2187 154.283 63.188 154.495 63.1599C154.707 63.1318 154.906 63.105 155.091 63.0789L154.884 63.1991C154.889 62.8895 154.826 62.6602 154.696 62.5099C154.567 62.359 154.342 62.2846 154.022 62.2846C153.81 62.2846 153.624 62.3329 153.465 62.4302C153.307 62.5276 153.194 62.683 153.13 62.8973L152.582 62.7314C152.666 62.4244 152.829 62.1833 153.072 62.0083C153.314 61.8332 153.633 61.7457 154.029 61.7457C154.346 61.7457 154.619 61.8025 154.848 61.9155C155.076 62.0292 155.24 62.2003 155.339 62.4296C155.389 62.5374 155.42 62.655 155.433 62.7817C155.446 62.9077 155.453 63.0403 155.453 63.1788V65.3456H154.94V64.5055L155.061 64.5833C154.929 64.8687 154.744 65.0836 154.505 65.2274C154.268 65.3711 153.98 65.4429 153.643 65.4429L153.642 65.4436ZM149.921 65.3462V63.591C149.921 63.4271 149.906 63.2677 149.876 63.1142C149.846 62.9607 149.795 62.8222 149.724 62.6987C149.652 62.5759 149.555 62.4786 149.433 62.4074C149.311 62.3362 149.157 62.3002 148.971 62.3002C148.826 62.3002 148.695 62.3251 148.577 62.3747C148.459 62.425 148.358 62.4988 148.274 62.5968C148.189 62.6954 148.123 62.8196 148.077 62.9698C148.031 63.12 148.007 63.2971 148.007 63.5002L147.628 63.3833C147.628 63.0456 147.689 62.7549 147.811 62.5106C147.933 62.2663 148.105 62.0788 148.327 61.9482C148.548 61.8169 148.809 61.7515 149.11 61.7515C149.336 61.7515 149.53 61.7875 149.69 61.8587C149.851 61.9299 149.984 62.0252 150.09 62.1441C150.195 62.263 150.278 62.395 150.339 62.54C150.4 62.685 150.442 62.8333 150.468 62.9848C150.493 63.1364 150.505 63.2781 150.505 63.4101V65.3462H149.921ZM147.423 65.3462V61.843H147.942V62.7804H148.008V65.3462H147.424H147.423ZM145.023 64.8955C145.384 64.8955 145.654 64.7747 145.833 64.5323C146.011 64.2906 146.1 63.9764 146.1 63.5917C146.1 63.1978 146.01 62.8836 145.831 62.6478C145.652 62.4119 145.382 62.2944 145.024 62.2944C144.78 62.2944 144.578 62.3492 144.42 62.4596C144.262 62.57 144.145 62.7222 144.067 62.9169C143.989 63.1115 143.95 63.3363 143.95 63.5917C143.95 63.9849 144.041 64.3011 144.222 64.5389C144.404 64.7766 144.671 64.8955 145.024 64.8955H145.023ZM145.023 65.4436C144.675 65.4436 144.375 65.3645 144.123 65.2065C143.871 65.049 143.677 64.8308 143.541 64.5526C143.404 64.2749 143.337 63.9542 143.337 63.591C143.337 63.2259 143.406 62.9038 143.544 62.6262C143.683 62.3486 143.879 62.1324 144.132 61.9776C144.384 61.8227 144.682 61.7457 145.023 61.7457C145.373 61.7457 145.675 61.8247 145.928 61.9828C146.181 62.1402 146.375 62.3577 146.51 62.6347C146.645 62.9117 146.712 63.2304 146.712 63.5917C146.712 63.9575 146.644 64.2789 146.508 64.5565C146.371 64.8348 146.177 65.0516 145.924 65.2084C145.671 65.3652 145.37 65.4436 145.023 65.4436H145.023ZM139.23 66.9029L139.908 65.0608L139.918 65.6056L138.387 61.843H138.994L140.194 64.8694H139.986L141.111 61.843H141.698L139.791 66.9029H139.23ZM138.128 65.3462C137.92 65.3894 137.716 65.407 137.513 65.3998C137.311 65.392 137.13 65.3508 136.971 65.2764C136.813 65.2019 136.693 65.0849 136.613 64.9249C136.544 64.7864 136.506 64.6466 136.501 64.5049C136.496 64.3631 136.493 64.2031 136.493 64.0235V60.8703H137.071V63.9973C137.071 64.1397 137.072 64.2625 137.075 64.3638C137.079 64.4657 137.101 64.5526 137.142 64.6264C137.22 64.7649 137.344 64.8459 137.513 64.87C137.683 64.8936 137.888 64.887 138.128 64.8504V65.3469V65.3462ZM135.783 61.843H138.128V62.3198H135.783V61.843ZM134.622 61.843H135.199V65.3462H134.622V61.843ZM134.622 60.6267H135.199V61.2237H134.622V60.6267ZM132.134 65.3462V61.843H132.65V62.6896L132.565 62.5792C132.606 62.4714 132.66 62.3721 132.726 62.2806C132.792 62.1898 132.865 62.1154 132.948 62.0572C133.038 61.9834 133.141 61.9279 133.256 61.89C133.371 61.8521 133.487 61.8299 133.606 61.8221C133.725 61.8142 133.837 61.8214 133.941 61.843V62.3845C133.819 62.3545 133.686 62.3466 133.541 62.3616C133.397 62.3773 133.262 62.4289 133.14 62.5171C133.027 62.6001 132.94 62.6974 132.878 62.8111C132.817 62.9247 132.774 63.0475 132.75 63.1808C132.726 63.314 132.714 63.4499 132.714 63.5884V65.3462H132.134ZM130.71 65.3462V64.4089H130.645V61.843H131.226V65.3462H130.71ZM129.542 65.437C129.315 65.437 129.121 65.4011 128.961 65.3299C128.801 65.2587 128.668 65.1633 128.562 65.0444C128.456 64.9256 128.372 64.7936 128.312 64.6486C128.252 64.5036 128.209 64.3553 128.184 64.2044C128.159 64.0528 128.147 63.9111 128.147 63.7792V61.843H128.73V63.5976C128.73 63.7622 128.745 63.9209 128.775 64.0744C128.806 64.2279 128.857 64.3664 128.93 64.4892C129.002 64.612 129.099 64.7093 129.222 64.7812C129.344 64.8524 129.497 64.8883 129.681 64.8883C129.826 64.8883 129.957 64.8635 130.075 64.8139C130.193 64.7642 130.294 64.6904 130.378 64.5918C130.463 64.4931 130.529 64.369 130.575 64.2168C130.621 64.0659 130.645 63.8889 130.645 63.6884L131.025 63.8053C131.025 64.1423 130.964 64.433 130.841 64.678C130.719 64.9216 130.547 65.1098 130.326 65.2404C130.104 65.3711 129.843 65.437 129.542 65.437H129.542ZM126.048 65.4436C125.694 65.4436 125.392 65.3645 125.145 65.2051C124.897 65.0464 124.708 64.8269 124.577 64.548C124.446 64.2691 124.379 63.9516 124.377 63.5943C124.379 63.2311 124.448 62.9104 124.582 62.6327C124.716 62.3545 124.906 62.1376 125.156 61.9808C125.405 61.824 125.704 61.7457 126.054 61.7457C126.424 61.7457 126.743 61.8364 127.009 62.018C127.276 62.1996 127.455 62.4485 127.546 62.764L126.975 62.9358C126.899 62.7327 126.779 62.5746 126.613 62.4622C126.447 62.3499 126.259 62.2937 126.048 62.2937C125.808 62.2937 125.609 62.3492 125.454 62.4609C125.298 62.572 125.182 62.7261 125.107 62.9215C125.031 63.1174 124.993 63.3415 124.991 63.5943C124.995 63.9836 125.085 64.2978 125.261 64.5369C125.437 64.776 125.699 64.8955 126.048 64.8955C126.276 64.8955 126.466 64.8433 126.617 64.7387C126.767 64.6336 126.882 64.482 126.963 64.2834L127.547 64.4356C127.425 64.7623 127.236 65.0124 126.978 65.1855C126.721 65.358 126.411 65.4449 126.048 65.4449L126.048 65.4436ZM120.965 63.2931H123.554V63.7569H120.965V63.2931ZM122.26 65.4436C121.915 65.4436 121.616 65.3671 121.359 65.215C121.103 65.0621 120.904 64.8498 120.761 64.5761C120.619 64.303 120.547 63.9829 120.547 63.6171C120.547 63.2344 120.617 62.9032 120.758 62.6229C120.898 62.3427 121.094 62.1265 121.346 61.9736C121.598 61.8214 121.894 61.7457 122.233 61.7457C122.585 61.7457 122.886 61.8267 123.134 61.9887C123.381 62.1513 123.567 62.3826 123.691 62.683C123.816 62.9835 123.87 63.3415 123.852 63.7569H123.268V63.5492C123.262 63.1187 123.174 62.7974 123.005 62.5844C122.836 62.3714 122.585 62.265 122.252 62.265C121.896 62.265 121.624 62.3799 121.438 62.6092C121.252 62.8385 121.159 63.1671 121.159 63.5949C121.159 64.0084 121.252 64.3285 121.438 64.5552C121.624 64.7825 121.888 64.8955 122.233 64.8955C122.464 64.8955 122.665 64.8426 122.836 64.7368C123.007 64.6303 123.141 64.4788 123.238 64.2789L123.793 64.4703C123.657 64.7799 123.452 65.0196 123.178 65.1888C122.904 65.3587 122.598 65.4436 122.258 65.4436H122.26ZM118.624 65.4403C118.206 65.4403 117.864 65.3489 117.597 65.1666C117.33 64.9837 117.166 64.7283 117.106 64.3997L117.696 64.3056C117.744 64.4957 117.853 64.6466 118.024 64.7583C118.194 64.87 118.407 64.9249 118.66 64.9249C118.897 64.9249 119.085 64.8753 119.223 64.776C119.36 64.6767 119.428 64.5415 119.428 64.371C119.428 64.2736 119.406 64.194 119.361 64.1325C119.315 64.0711 119.221 64.013 119.08 63.9594C118.938 63.9052 118.724 63.8393 118.439 63.7615C118.13 63.6792 117.887 63.5943 117.709 63.5068C117.531 63.4192 117.405 63.3173 117.33 63.2004C117.254 63.0835 117.216 62.9404 117.216 62.7719C117.216 62.5668 117.272 62.3871 117.384 62.2336C117.497 62.0801 117.654 61.9606 117.857 61.875C118.059 61.7894 118.294 61.747 118.562 61.747C118.828 61.747 119.067 61.7894 119.276 61.8737C119.486 61.958 119.655 62.0775 119.784 62.2323C119.912 62.3865 119.989 62.5668 120.012 62.7725L119.422 62.8797C119.394 62.6935 119.303 62.5459 119.15 62.4368C118.996 62.3277 118.801 62.2695 118.562 62.263C118.336 62.2565 118.151 62.2976 118.01 62.3865C117.868 62.4753 117.797 62.5942 117.797 62.7431C117.797 62.8294 117.823 62.9025 117.876 62.962C117.929 63.0214 118.028 63.0782 118.172 63.1325C118.315 63.186 118.524 63.2481 118.799 63.3173C119.108 63.3951 119.352 63.48 119.53 63.5721C119.709 63.6642 119.836 63.772 119.912 63.8967C119.988 64.0208 120.025 64.1743 120.025 64.3559C120.025 64.693 119.901 64.9589 119.652 65.1522C119.404 65.3456 119.061 65.4423 118.624 65.4423L118.624 65.4403ZM113.557 64.9151C113.792 64.9151 113.986 64.8583 114.137 64.7446C114.289 64.631 114.401 64.4742 114.473 64.2743C114.546 64.0744 114.582 63.8464 114.582 63.5917C114.582 63.3343 114.545 63.1063 114.471 62.9071C114.398 62.7085 114.287 62.553 114.139 62.442C113.99 62.3303 113.802 62.2748 113.573 62.2748C113.335 62.2748 113.139 62.3329 112.984 62.4498C112.83 62.5668 112.715 62.7242 112.64 62.9234C112.566 63.1227 112.528 63.3454 112.528 63.5917C112.528 63.8406 112.566 64.0646 112.641 64.2645C112.717 64.4644 112.831 64.6231 112.984 64.7394C113.136 64.8563 113.327 64.9145 113.556 64.9145L113.557 64.9151ZM113.528 67.0002C113.344 67.0002 113.165 66.9721 112.99 66.9159C112.815 66.8598 112.654 66.7748 112.508 66.6612C112.362 66.5475 112.24 66.4045 112.143 66.232L112.671 65.9531C112.758 66.1242 112.88 66.2484 113.039 66.3254C113.198 66.4032 113.362 66.4424 113.53 66.4424C113.753 66.4424 113.937 66.4019 114.083 66.3209C114.229 66.2399 114.337 66.1197 114.409 65.959C114.48 65.7989 114.515 65.5997 114.513 65.3626V64.4056H114.581V61.843H115.094V65.3684C115.094 65.4658 115.091 65.5585 115.086 65.6461C115.08 65.7336 115.069 65.8205 115.052 65.9074C115.007 66.1556 114.917 66.3607 114.783 66.5221C114.648 66.6828 114.475 66.8029 114.263 66.882C114.051 66.961 113.806 67.0002 113.527 67.0002H113.528ZM113.486 65.4436C113.159 65.4436 112.88 65.3626 112.646 65.2006C112.412 65.0379 112.232 64.8171 112.106 64.5375C111.979 64.2573 111.916 63.9425 111.916 63.5917C111.916 63.2415 111.979 62.9267 112.106 62.6478C112.232 62.3688 112.412 62.1487 112.646 61.988C112.88 61.8266 113.158 61.7463 113.483 61.7463C113.813 61.7463 114.092 61.8266 114.316 61.988C114.541 62.1487 114.711 62.3688 114.827 62.6465C114.943 62.9247 115.001 63.2396 115.001 63.5923C115.001 63.9425 114.943 64.2573 114.827 64.5362C114.711 64.8152 114.541 65.0366 114.316 65.1993C114.092 65.3626 113.815 65.4442 113.486 65.4442V65.4436ZM110.684 65.3462V63.591C110.684 63.4271 110.669 63.2677 110.639 63.1142C110.609 62.9607 110.557 62.8222 110.486 62.6987C110.415 62.5759 110.318 62.4786 110.195 62.4074C110.073 62.3362 109.919 62.3002 109.733 62.3002C109.588 62.3002 109.456 62.3251 109.339 62.3747C109.221 62.425 109.12 62.4988 109.036 62.5968C108.951 62.6954 108.885 62.8196 108.839 62.9698C108.793 63.12 108.769 63.2971 108.769 63.5002L108.39 63.3833C108.39 63.0456 108.451 62.7549 108.573 62.5106C108.695 62.2663 108.867 62.0788 109.089 61.9482C109.31 61.8169 109.571 61.7515 109.872 61.7515C110.099 61.7515 110.292 61.7875 110.452 61.8587C110.612 61.9299 110.746 62.0252 110.852 62.1441C110.957 62.263 111.04 62.395 111.101 62.54C111.162 62.685 111.204 62.8333 111.229 62.9848C111.254 63.1364 111.266 63.2781 111.266 63.4101V65.3462H110.682H110.684ZM108.186 65.3462V61.843H108.706V62.7804H108.77V65.3462H108.186ZM106.64 61.843H107.217V65.3462H106.64V61.843ZM106.64 60.6267H107.217V61.2237H106.64V60.6267ZM105.147 65.3462V63.591C105.147 63.4271 105.132 63.2677 105.102 63.1142C105.072 62.9607 105.021 62.8222 104.949 62.6987C104.878 62.5759 104.781 62.4786 104.658 62.4074C104.536 62.3362 104.382 62.3002 104.196 62.3002C104.051 62.3002 103.92 62.3251 103.802 62.3747C103.684 62.425 103.583 62.4988 103.499 62.5968C103.414 62.6954 103.349 62.8196 103.302 62.9698C103.256 63.12 103.232 63.2971 103.232 63.5002L102.853 63.3833C102.853 63.0456 102.914 62.7549 103.036 62.5106C103.159 62.2663 103.33 62.0788 103.552 61.9482C103.773 61.8169 104.034 61.7515 104.335 61.7515C104.562 61.7515 104.756 61.7875 104.916 61.8587C105.076 61.9299 105.209 62.0252 105.315 62.1441C105.421 62.263 105.504 62.395 105.564 62.54C105.625 62.685 105.668 62.8333 105.693 62.9848C105.718 63.1364 105.73 63.2781 105.73 63.4101V65.3462H105.146H105.147ZM102.649 65.3462V61.843H103.168V62.7804H103.234V65.3462H102.65H102.649ZM99.1431 63.2931H101.732V63.7569H99.1431V63.2931ZM100.437 65.4436C100.093 65.4436 99.7931 65.3671 99.537 65.215C99.2809 65.0621 99.0817 64.8498 98.9387 64.5761C98.7956 64.303 98.7244 63.9829 98.7244 63.6171C98.7244 63.2344 98.7943 62.9032 98.9354 62.6229C99.0752 62.3427 99.2718 62.1265 99.5239 61.9736C99.7754 61.8214 100.071 61.7457 100.411 61.7457C100.763 61.7457 101.064 61.8267 101.311 61.9887C101.559 62.1513 101.745 62.3826 101.869 62.683C101.994 62.9835 102.047 63.3415 102.03 63.7569H101.446V63.5492C101.439 63.1187 101.352 62.7974 101.183 62.5844C101.014 62.3714 100.763 62.265 100.43 62.265C100.073 62.265 99.8022 62.3799 99.6154 62.6092C99.4299 62.8385 99.3365 63.1671 99.3365 63.5949C99.3365 64.0084 99.4292 64.3285 99.6154 64.5552C99.8016 64.7825 100.067 64.8955 100.41 64.8955C100.642 64.8955 100.843 64.8426 101.014 64.7368C101.184 64.6303 101.318 64.4788 101.416 64.2789L101.97 64.4703C101.834 64.7799 101.629 65.0196 101.356 65.1888C101.082 65.3587 100.776 65.4436 100.437 65.4436H100.437ZM98.3024 65.3462C98.0947 65.3894 97.8902 65.407 97.6877 65.3998C97.4852 65.392 97.3049 65.3508 97.1462 65.2764C96.9875 65.2019 96.8679 65.0849 96.7876 64.9249C96.7183 64.7864 96.6811 64.6466 96.6752 64.5049C96.67 64.3631 96.6667 64.2031 96.6667 64.0235V60.8703H97.2442V63.9973C97.2442 64.1397 97.2462 64.2625 97.2494 64.3638C97.2527 64.4657 97.2749 64.5526 97.316 64.6264C97.3938 64.7649 97.5179 64.8459 97.6877 64.87C97.8576 64.8936 98.062 64.887 98.3024 64.8504V65.3469V65.3462ZM95.9573 61.843H98.3024V62.3198H95.9573V61.843ZM94.9193 65.3462V63.591C94.9193 63.4271 94.9043 63.2677 94.8743 63.1142C94.8442 62.9607 94.7933 62.8222 94.7214 62.6987C94.6502 62.5759 94.5536 62.4786 94.4314 62.4074C94.3092 62.3362 94.1551 62.3002 93.9696 62.3002C93.8245 62.3002 93.6933 62.3251 93.5757 62.3747C93.4581 62.425 93.3568 62.4988 93.2726 62.5968C93.1883 62.6954 93.1223 62.8196 93.076 62.9698C93.0296 63.12 93.0061 63.2971 93.0061 63.5002L92.6265 63.3833C92.6265 63.0456 92.6879 62.7549 92.8101 62.5106C92.9322 62.2663 93.1047 62.0788 93.3261 61.9482C93.5476 61.8169 93.8082 61.7515 94.1094 61.7515C94.336 61.7515 94.53 61.7875 94.6901 61.8587C94.8501 61.9299 94.9834 62.0252 95.0885 62.1441C95.195 62.263 95.278 62.395 95.3387 62.54C95.3988 62.685 95.4419 62.8333 95.4668 62.9848C95.4916 63.1364 95.504 63.2781 95.504 63.4101V65.3462H94.92H94.9193ZM92.4214 65.3462V60.675H92.9407V63.254H93.0061V65.3462H92.4221H92.4214ZM89.979 64.9151C90.2148 64.9151 90.4082 64.8583 90.5597 64.7446C90.7113 64.631 90.823 64.4742 90.8948 64.2743C90.9673 64.0744 91.0039 63.8464 91.0039 63.5917C91.0039 63.3343 90.9667 63.1063 90.8935 62.9071C90.8204 62.7085 90.7093 62.553 90.5617 62.442C90.4134 62.3303 90.2246 62.2748 89.9953 62.2748C89.7576 62.2748 89.5609 62.3329 89.4068 62.4498C89.252 62.5668 89.1376 62.7242 89.0632 62.9234C88.9887 63.1227 88.9515 63.3454 88.9515 63.5917C88.9515 63.8406 88.9894 64.0646 89.0651 64.2645C89.1409 64.4644 89.2546 64.6231 89.4074 64.7394C89.5596 64.8563 89.751 64.9145 89.9803 64.9145L89.979 64.9151ZM89.9496 67.0002C89.7661 67.0002 89.5864 66.9721 89.4114 66.9159C89.2363 66.8598 89.0756 66.7748 88.9299 66.6612C88.7836 66.5475 88.6621 66.4045 88.5654 66.232L89.0939 65.9531C89.1808 66.1242 89.3029 66.2484 89.4623 66.3254C89.621 66.4032 89.785 66.4424 89.9535 66.4424C90.1763 66.4424 90.3611 66.4019 90.5068 66.3209C90.6525 66.2399 90.7616 66.1197 90.8328 65.959C90.904 65.7989 90.9386 65.5997 90.9366 65.3626V64.4056H91.0046V61.843H91.5167V65.3684C91.5167 65.4658 91.5141 65.5585 91.5089 65.6461C91.5036 65.7336 91.4919 65.8205 91.4749 65.9074C91.4298 66.1556 91.3397 66.3607 91.2058 66.5221C91.0719 66.6828 90.8987 66.8029 90.6871 66.882C90.4748 66.961 90.2298 67.0002 89.9509 67.0002H89.9496ZM89.9078 65.4436C89.5818 65.4436 89.301 65.3626 89.0678 65.2006C88.8346 65.0379 88.6543 64.8171 88.5282 64.5375C88.4015 64.2573 88.3381 63.9425 88.3381 63.5917C88.3381 63.2415 88.4015 62.9267 88.5282 62.6478C88.6543 62.3688 88.8346 62.1487 89.0678 61.988C89.3016 61.8266 89.5805 61.7463 89.9045 61.7463C90.2357 61.7463 90.5133 61.8266 90.738 61.988C90.9628 62.1487 91.1339 62.3688 91.2495 62.6465C91.3652 62.9247 91.4226 63.2396 91.4226 63.5923C91.4226 63.9425 91.3645 64.2573 91.2495 64.5362C91.1339 64.8152 90.9634 65.0366 90.738 65.1993C90.5133 65.3626 90.2364 65.4442 89.9078 65.4442V65.4436ZM87.1055 65.3462V63.591C87.1055 63.4271 87.0904 63.2677 87.0597 63.1142C87.0297 62.9607 86.9787 62.8222 86.9075 62.6987C86.8357 62.5759 86.739 62.4786 86.6168 62.4074C86.4947 62.3362 86.3405 62.3002 86.155 62.3002C86.01 62.3002 85.8787 62.3251 85.7605 62.3747C85.6429 62.425 85.5416 62.4988 85.4574 62.5968C85.3731 62.6954 85.3078 62.8196 85.2607 62.9698C85.2144 63.12 85.1915 63.2971 85.1915 63.5002L84.812 63.3833C84.812 63.0456 84.8727 62.7549 84.9955 62.5106C85.1177 62.2663 85.2895 62.0788 85.5116 61.9482C85.733 61.8169 85.9937 61.7515 86.2948 61.7515C86.5215 61.7515 86.7155 61.7875 86.8749 61.8587C87.0349 61.9299 87.1682 62.0252 87.274 62.1441C87.3798 62.263 87.4628 62.395 87.5235 62.54C87.5843 62.685 87.6267 62.8333 87.6516 62.9848C87.6764 63.1364 87.6888 63.2781 87.6888 63.4101V65.3462H87.1048H87.1055ZM84.6075 65.3462V61.843H85.1268V62.7804H85.1922V65.3462H84.6082H84.6075ZM81.101 63.2931H83.6897V63.7569H81.101V63.2931ZM82.395 65.4436C82.0508 65.4436 81.7509 65.3671 81.4949 65.215C81.2388 65.0621 81.0389 64.8498 80.8965 64.5761C80.7541 64.303 80.6823 63.9829 80.6823 63.6171C80.6823 63.2344 80.7528 62.9032 80.8926 62.6229C81.0331 62.3427 81.2297 62.1265 81.4812 61.9736C81.7333 61.8214 82.0286 61.7457 82.3683 61.7457C82.7203 61.7457 83.0208 61.8267 83.2684 61.9887C83.516 62.1513 83.7021 62.3826 83.8263 62.683C83.9504 62.9835 84.0046 63.3415 83.987 63.7569H83.403V63.5492C83.3964 63.1187 83.3089 62.7974 83.1404 62.5844C82.9718 62.3714 82.7203 62.265 82.3879 62.265C82.0312 62.265 81.7601 62.3799 81.5739 62.6092C81.3877 62.8385 81.295 63.1671 81.295 63.5949C81.295 64.0084 81.3877 64.3285 81.5739 64.5552C81.7601 64.7825 82.0247 64.8955 82.3683 64.8955C82.5995 64.8955 82.8007 64.8426 82.9718 64.7368C83.143 64.6303 83.2762 64.4788 83.3742 64.2789L83.9288 64.4703C83.7923 64.7799 83.5872 65.0196 83.3135 65.1888C83.0404 65.3587 82.7334 65.4436 82.3944 65.4436H82.395ZM78.5188 65.3462V61.843H79.0342V62.6896L78.9499 62.5792C78.9911 62.4714 79.0446 62.3721 79.1106 62.2806C79.1766 62.1898 79.2504 62.1154 79.3327 62.0572C79.4235 61.9834 79.5261 61.9279 79.6404 61.89C79.7553 61.8521 79.8716 61.8299 79.9905 61.8221C80.1094 61.8142 80.2211 61.8214 80.3243 61.843V62.3845C80.2035 62.3545 80.0702 62.3466 79.9252 62.3616C79.7802 62.3773 79.6463 62.4289 79.5228 62.5171C79.4111 62.6001 79.3236 62.6974 79.2615 62.8111C79.2001 62.9247 79.157 63.0475 79.1335 63.1808C79.1093 63.314 79.0975 63.4499 79.0975 63.5884V65.3462H78.5168H78.5188ZM77.8055 65.3462C77.5977 65.3894 77.3926 65.407 77.1908 65.3998C76.9883 65.392 76.808 65.3508 76.6486 65.2764C76.4899 65.2019 76.3703 65.0849 76.29 64.9249C76.2207 64.7864 76.1835 64.6466 76.1776 64.5049C76.1724 64.3631 76.1698 64.2031 76.1698 64.0235V60.8703H76.7472V63.9973C76.7472 64.1397 76.7492 64.2625 76.7525 64.3638C76.7557 64.4657 76.7773 64.5526 76.8191 64.6264C76.8968 64.7649 77.0209 64.8459 77.1908 64.87C77.36 64.8936 77.5651 64.887 77.8055 64.8504V65.3469V65.3462ZM75.4604 61.843H77.8055V62.3198H75.4604V61.843Z" fill="#FF7955"/>
</svg>
