<svg width="125" height="52" viewBox="0 0 171 62" fill="none" xmlns="http://www.w3.org/2000/svg">
<path d="M165.402 37.6807L170.145 41.0767C168.605 43.512 164.923 47.69 158.558 47.69C150.653 47.69 144.766 41.1214 144.766 32.7654C144.766 23.8732 150.715 17.8408 157.892 17.8408C165.11 17.8408 168.647 24.0073 169.791 27.3363L170.415 29.0343L151.818 37.3009C153.232 40.2948 155.437 41.814 158.558 41.814C161.678 41.814 163.841 40.1607 165.402 37.6807ZM150.819 32.2962L163.238 26.7554C162.552 24.901 160.513 23.5828 158.079 23.5828C154.98 23.5828 150.674 26.5319 150.819 32.2962Z" fill="#FF302F"/>
<path d="M135.797 2.62598H141.788V46.3274H135.797V2.62598Z" fill="#20B15A"/>
<path d="M126.352 19.0025H132.135V45.5451C132.135 56.5598 126.081 61.0952 118.925 61.0952C112.185 61.0952 108.129 56.2246 106.61 52.2701L111.915 49.9018C112.872 52.3371 115.181 55.2192 118.925 55.2192C123.523 55.2192 126.352 52.1584 126.352 46.4387V44.2939H126.144C124.771 46.0813 122.15 47.6899 118.821 47.6899C111.873 47.6899 105.508 41.1883 105.508 32.81C105.508 24.387 111.873 17.8184 118.821 17.8184C122.129 17.8184 124.771 19.4047 126.144 21.1473H126.352V19.0025ZM126.768 32.81C126.768 27.5372 123.502 23.6944 119.341 23.6944C115.139 23.6944 111.603 27.5372 111.603 32.81C111.603 38.0157 115.139 41.7916 119.341 41.7916C123.502 41.8139 126.768 38.0157 126.768 32.81Z" fill="#3686F7"/>
<path d="M72.6201 32.6989C72.6201 41.3007 66.3794 47.6235 58.7241 47.6235C51.0688 47.6235 44.8281 41.2783 44.8281 32.6989C44.8281 24.0525 51.0688 17.752 58.7241 17.752C66.3794 17.752 72.6201 24.0525 72.6201 32.6989ZM66.5458 32.6989C66.5458 27.3368 62.9262 23.6503 58.7241 23.6503C54.522 23.6503 50.9024 27.3368 50.9024 32.6989C50.9024 38.0163 54.522 41.7475 58.7241 41.7475C62.9262 41.7475 66.5458 38.0163 66.5458 32.6989Z" fill="#FF302F"/>
<path d="M102.972 32.7654C102.972 41.3672 96.7309 47.69 89.0757 47.69C81.4204 47.69 75.1797 41.3672 75.1797 32.7654C75.1797 24.119 81.4204 17.8408 89.0757 17.8408C96.7309 17.8408 102.972 24.0966 102.972 32.7654ZM96.8766 32.7654C96.8766 27.4033 93.257 23.7168 89.0549 23.7168C84.8528 23.7168 81.2332 27.4033 81.2332 32.7654C81.2332 38.0829 84.8528 41.814 89.0549 41.814C93.2778 41.814 96.8766 38.0605 96.8766 32.7654Z" fill="#FFBA40"/>
<path d="M21.9881 41.1439C13.2719 41.1439 6.44874 33.5922 6.44874 24.2308C6.44874 14.8694 13.2719 7.31773 21.9881 7.31773C26.6894 7.31773 30.1218 9.30619 32.6597 11.8532L36.841 7.36241C33.3046 3.72063 28.5825 0.950195 21.9881 0.950195C10.0475 0.950195 0 11.4064 0 24.2308C0 37.0552 10.0475 47.5114 21.9881 47.5114C28.4368 47.5114 33.3046 45.2325 37.1114 40.9875C41.0223 36.7871 42.2288 30.8888 42.2288 26.1075C42.2288 24.6106 42.0624 23.069 41.8752 21.9295H21.9881V28.1407H36.1545C35.7385 32.0282 34.5943 34.687 32.9094 36.4967C30.8707 38.7085 27.6464 41.1439 21.9881 41.1439Z" fill="#3686F7"/>
</svg>
