<svg width="318" height="320" viewBox="0 0 318 320" fill="none" xmlns="http://www.w3.org/2000/svg">
<path d="M171.565 3.67948L211.763 30.4707C212.105 30.7007 212.332 30.8157 212.56 30.9307C212.788 31.0456 213.13 31.1606 213.471 31.1606L260.729 40.9342C265.056 41.8541 268.814 43.9238 271.661 46.7984C274.622 49.788 276.672 53.5825 277.469 57.8369L287.148 105.555C287.262 105.9 287.262 106.245 287.376 106.475C287.49 106.705 287.604 107.05 287.831 107.28L314.364 147.869C316.756 151.549 318.008 155.803 318.008 159.943C318.008 164.082 316.756 168.221 314.364 172.016L287.831 212.605C287.604 212.835 287.49 213.18 287.376 213.41C287.262 213.64 287.148 213.985 287.148 214.33L277.469 262.048C276.558 266.418 274.508 270.212 271.661 273.202C268.7 276.191 264.943 278.261 260.615 279.066L213.357 288.839C213.016 288.954 212.674 288.954 212.446 289.069C212.219 289.184 211.877 289.299 211.649 289.529L171.451 316.321C167.807 318.735 163.594 320 159.494 320C155.395 320 151.295 318.735 147.538 316.321L107.34 289.529C106.998 289.299 106.77 289.184 106.543 289.069C106.315 288.954 105.973 288.839 105.632 288.839L58.3734 279.066C54.0462 278.146 50.2883 276.076 47.3276 273.202C44.3668 270.212 42.3171 266.418 41.52 262.048L31.8406 214.33C31.7267 213.985 31.7267 213.64 31.6128 213.41C31.499 213.18 31.3851 212.95 31.1573 212.605L4.62447 172.016C2.23309 168.336 0.980469 164.082 0.980469 159.943C0.980469 155.803 2.23309 151.664 4.62447 147.869L31.1573 107.28C31.3851 106.935 31.499 106.705 31.6128 106.475C31.7267 106.245 31.8406 105.9 31.8406 105.555L41.52 57.8369C42.431 53.4675 44.4807 49.673 47.3276 46.7984C50.2883 43.8088 54.0462 41.7391 58.2596 40.9342L105.518 31.1606C105.859 31.0456 106.201 31.0456 106.429 30.9307C106.656 30.8157 106.884 30.7007 107.226 30.4707L147.424 3.67948C151.068 1.26482 155.281 0 159.381 0C163.48 0 167.58 1.26482 171.337 3.67948H171.565ZM130.684 96.1265H188.646V109.695H130.684V96.1265ZM130.684 210.42H188.646V223.989H130.684V210.42ZM135.467 171.096V176.04C135.467 178.34 136.378 180.41 137.858 181.904C139.339 183.399 141.388 184.319 143.666 184.319H144.691C146.968 184.319 149.018 183.399 150.498 181.904C151.979 180.41 152.89 178.34 152.89 176.04V168.221L121.916 163.507L122.03 144.075C122.03 138.096 124.421 132.576 128.407 128.667C132.278 124.757 137.744 122.228 143.666 122.228H144.691C150.612 122.228 156.078 124.642 159.95 128.667C163.822 132.576 166.327 138.096 166.327 144.075V149.019H152.89V144.075C152.89 141.775 151.979 139.705 150.498 138.211C149.018 136.716 146.968 135.796 144.691 135.796H143.666C141.388 135.796 139.339 136.716 137.858 138.211C136.378 139.705 135.467 141.775 135.467 144.075V151.894L166.441 156.608V176.04C166.441 182.019 164.049 187.539 160.064 191.448C156.192 195.358 150.726 197.887 144.805 197.887H143.78C137.858 197.887 132.392 195.473 128.52 191.448C124.649 187.539 122.143 182.019 122.143 176.04V171.096H135.581H135.467ZM197.87 122.113H198.895C204.817 122.113 210.169 124.527 214.154 128.552C218.026 132.576 220.531 137.981 220.531 143.96V176.04C220.531 182.019 218.14 187.539 214.154 191.448C210.283 195.358 204.817 197.887 198.895 197.887H197.87C191.949 197.887 186.483 195.473 182.611 191.448C178.739 187.539 176.234 182.019 176.234 176.04V143.96C176.234 137.981 178.625 132.461 182.611 128.552C186.597 124.642 191.949 122.113 197.87 122.113ZM198.895 135.681H197.87C195.593 135.681 193.543 136.601 192.063 138.096C190.582 139.59 189.671 141.66 189.671 143.96V176.04C189.671 178.34 190.582 180.41 192.063 181.904C193.543 183.399 195.593 184.319 197.87 184.319H198.895C201.173 184.319 203.222 183.399 204.703 181.904C206.183 180.41 207.094 178.34 207.094 176.04V143.96C207.094 141.66 206.183 139.59 204.703 138.096C203.222 136.601 201.173 135.681 198.895 135.681ZM98.799 128.897V122.113H112.236V197.772H98.799V128.897ZM159.722 56.687C187.963 56.687 213.585 68.3004 232.033 86.9278C250.594 105.67 261.982 131.427 261.982 159.943C261.982 188.459 250.48 214.33 232.033 232.957C213.471 251.7 187.963 263.198 159.722 263.198C131.481 263.198 105.859 251.585 87.4116 232.957C68.8499 214.215 57.4624 188.459 57.4624 159.943C57.4624 131.427 68.9638 105.555 87.4116 86.9278C105.973 68.1854 131.481 56.687 159.722 56.687ZM220.19 98.8861C204.703 83.2483 183.294 73.5897 159.722 73.5897C136.036 73.5897 114.742 83.2483 99.2546 98.8861C83.7676 114.524 74.2021 136.141 74.2021 159.943C74.2021 183.859 83.7676 205.361 99.2546 220.999C114.742 236.637 136.15 246.295 159.722 246.295C183.408 246.295 204.703 236.637 220.19 220.999C235.677 205.361 245.242 183.744 245.242 159.943C245.242 136.026 235.677 114.524 220.19 98.8861ZM202.653 44.4987L162.455 17.7075C161.658 17.1326 160.633 16.9026 159.722 16.9026C158.811 16.9026 157.9 17.1326 156.989 17.7075L116.791 44.4987C115.653 45.3036 114.4 45.8786 113.147 46.4535C111.895 47.0284 110.642 47.3733 109.276 47.6033L62.0174 57.3769C60.9926 57.6069 60.0816 58.0668 59.5122 58.6418C58.8289 59.3317 58.3734 60.1365 58.2596 61.1714L48.5802 108.89C48.3525 110.27 47.897 111.649 47.4415 112.799C46.8721 114.064 46.3027 115.329 45.5056 116.479L18.9727 157.068C18.4033 157.873 18.1756 158.908 18.1756 159.828C18.1756 160.747 18.4033 161.667 18.9727 162.587L45.5056 203.176C46.3027 204.326 46.8721 205.591 47.4415 206.856C48.0108 208.121 48.3525 209.386 48.5802 210.765L58.2596 258.484C58.4873 259.519 58.9428 260.323 59.6261 261.013C60.3093 261.703 61.1064 262.163 62.1313 262.278L109.389 272.052C110.756 272.397 112.122 272.742 113.261 273.202C114.514 273.777 115.766 274.351 116.905 275.156L157.103 301.948C157.9 302.522 158.925 302.752 159.836 302.752C160.747 302.752 161.658 302.522 162.569 301.948L202.767 275.156C204.02 274.351 205.158 273.662 206.411 273.202C207.664 272.627 208.916 272.282 210.283 272.052L257.541 262.278C258.566 262.048 259.363 261.588 260.046 260.898C260.729 260.208 261.185 259.404 261.412 258.369L271.092 210.65C271.433 209.271 271.775 207.891 272.231 206.741C272.8 205.476 273.369 204.326 274.166 203.061L300.699 162.472C301.269 161.667 301.496 160.632 301.496 159.713C301.496 158.793 301.269 157.873 300.699 156.953L274.166 116.364C273.369 115.099 272.686 113.949 272.231 112.684C271.661 111.419 271.32 110.155 271.092 108.775L261.412 61.0564C261.185 60.0216 260.729 59.2167 260.046 58.5268C259.363 57.8369 258.566 57.3769 257.541 57.147L210.283 47.3733C208.916 47.1434 207.55 46.6834 206.411 46.2235C205.158 45.6486 203.906 45.0737 202.767 44.2688L202.653 44.4987Z" fill="#FF6F0F"/>
</svg>
